<svg id="图层_1" data-name="图层 1" xmlns="http://www.w3.org/2000/svg" viewBox="0 0 1103.52 251.16"><defs><style>.cls-1{fill:#ec0062;}.cls-2{fill:#ff595c;}</style></defs><polygon class="cls-1" points="123.07 0 0 251.16 253.72 251.16 123.07 0"/><polygon class="cls-2" points="183.35 115.54 118.05 251.16 253.76 251.16 183.35 115.54"/><polygon class="cls-1" points="415.74 0 292.67 251.16 546.39 251.16 415.74 0"/><polygon class="cls-2" points="476.02 115.54 410.72 251.16 546.43 251.16 476.02 115.54"/><path class="cls-1" d="M979,1a125,125,0,1,0,125,125A125,125,0,0,0,979,1Zm0,182.92A57.93,57.93,0,1,1,1036.93,126,57.93,57.93,0,0,1,979,183.92Z" transform="translate(-0.49 -0.42)"/><path class="cls-1" d="M757.49,81.64c4.61,0,8.06,1.15,12.88,2.82,28.78,14.45,44.19,37.74,44.7,70.13.55,34.57-12.36,62.46-42.72,80.61-21.55,12.89-45.55,16.43-70.22,15.71-27.76-.82-53.72-8.78-74.82-27.57-6.86-6.1-38-32.25-41.48-76h64.52a46.07,46.07,0,0,0,18.43,28.8C686,188.6,707.66,190.45,727.54,183c15-5.76,22.06-19.79,17.56-36.37-3.9-14.39-15.44-22.7-33.35-23.37-12.32-.46-24.68-.32-37-.44-2.11,0-4.22,0-7.16,0,0-9.22.15-18.49.15-26.9h0a24.58,24.58,0,0,1,10.79-20.53L699.89,60.9H633.07L602,1H805.88V60.9Z" transform="translate(-0.49 -0.42)"/></svg>